<svg width="48" height="48" viewBox="0 0 48 48" fill="none" xmlns="http://www.w3.org/2000/svg">
<circle cx="24" cy="24" r="24" fill="#421052"/>
<path fill-rule="evenodd" clip-rule="evenodd" d="M37.0056 14.8359L24.8226 27.0187C24.5704 27.25 24.24 27.3783 23.8962 27.3783C23.5547 27.3783 23.2243 27.25 22.9721 27.0187L10.7199 14.8359H37.0056ZM9.60156 15.2818L18.173 23.8418L9.60156 32.4132V15.2818ZM28.8002 24.6532L25.635 27.8189C25.4074 28.0505 25.135 28.2343 24.8337 28.3599C24.7556 28.3926 24.6774 28.4213 24.5948 28.4459L24.461 28.4825C24.2712 28.5274 24.0793 28.5502 23.8873 28.5502C23.5592 28.5505 23.2355 28.486 22.9341 28.3605C22.8203 28.3139 22.7109 28.2589 22.606 28.1964C22.432 28.0913 22.2712 27.9645 22.1261 27.8189L18.9721 24.6532L10.5033 33.1105H37.2578L28.8002 24.6532ZM38.173 32.4132L29.6128 23.8418L38.173 15.2818V32.4132Z" fill="#E7D4E6"/>
</svg>
