<svg width="48" height="48" viewBox="0 0 48 48" fill="none" xmlns="http://www.w3.org/2000/svg">
<mask id="mask0_534_1285" style="mask-type:luminance" maskUnits="userSpaceOnUse" x="0" y="0" width="48" height="48">
<path fill-rule="evenodd" clip-rule="evenodd" d="M0 24C0 10.7452 10.7452 0 24 0C37.2548 0 48 10.7452 48 24C48 37.2548 37.2548 48 24 48C10.7452 48 0 37.2548 0 24Z" fill="white"/>
</mask>
<g mask="url(#mask0_534_1285)">
<path fill-rule="evenodd" clip-rule="evenodd" d="M0 24C0 10.7452 10.7452 0 24 0C37.2548 0 48 10.7452 48 24C48 37.2548 37.2548 48 24 48C10.7452 48 0 37.2548 0 24Z" fill="#421052"/>
<path fill-rule="evenodd" clip-rule="evenodd" d="M24.0004 11.2002C20.5241 11.2002 20.0878 11.2154 18.7225 11.2775C17.3598 11.3399 16.4297 11.5557 15.6158 11.8722C14.7739 12.1991 14.0598 12.6365 13.3483 13.3482C12.6363 14.0597 12.199 14.7738 11.871 15.6154C11.5536 16.4296 11.3376 17.36 11.2763 18.7221C11.2152 20.0875 11.1992 20.524 11.1992 24.0003C11.1992 27.4766 11.2147 27.9116 11.2766 29.2769C11.3392 30.6396 11.555 31.5697 11.8712 32.3836C12.1984 33.2255 12.6358 33.9396 13.3475 34.6511C14.0587 35.3631 14.7729 35.8015 15.6142 36.1285C16.4286 36.445 17.359 36.6607 18.7214 36.7231C20.0868 36.7853 20.5228 36.8005 23.9988 36.8005C27.4754 36.8005 27.9103 36.7853 29.2757 36.7231C30.6384 36.6607 31.5696 36.445 32.384 36.1285C33.2256 35.8015 33.9387 35.3631 34.6499 34.6511C35.3619 33.9396 35.7992 33.2255 36.1272 32.3839C36.4419 31.5697 36.6579 30.6393 36.7219 29.2772C36.7832 27.9118 36.7992 27.4766 36.7992 24.0003C36.7992 20.524 36.7832 20.0878 36.7219 18.7224C36.6579 17.3597 36.4419 16.4296 36.1272 15.6157C35.7992 14.7738 35.3619 14.0597 34.6499 13.3482C33.9379 12.6362 33.2258 12.1989 32.3832 11.8722C31.5672 11.5557 30.6365 11.3399 29.2738 11.2775C27.9085 11.2154 27.4738 11.2002 23.9964 11.2002H24.0004ZM22.853 13.5061C23.1938 13.5056 23.574 13.5061 24.0013 13.5061C27.4189 13.5061 27.824 13.5184 29.1736 13.5797C30.4216 13.6368 31.0989 13.8453 31.5501 14.0205C32.1475 14.2525 32.5733 14.5299 33.0211 14.9779C33.4691 15.4259 33.7464 15.8526 33.979 16.4499C34.1542 16.9006 34.363 17.5779 34.4198 18.8259C34.4811 20.1753 34.4944 20.5806 34.4944 23.9966C34.4944 27.4127 34.4811 27.818 34.4198 29.1674C34.3627 30.4154 34.1542 31.0927 33.979 31.5434C33.747 32.1407 33.4691 32.5661 33.0211 33.0138C32.5731 33.4618 32.1477 33.7391 31.5501 33.9711C31.0995 34.1471 30.4216 34.3552 29.1736 34.4122C27.8242 34.4736 27.4189 34.4869 24.0013 34.4869C20.5834 34.4869 20.1783 34.4736 18.8289 34.4122C17.5809 34.3546 16.9036 34.1461 16.4521 33.9709C15.8548 33.7389 15.4281 33.4615 14.9801 33.0135C14.5321 32.5655 14.2548 32.1399 14.0222 31.5423C13.847 31.0916 13.6382 30.4143 13.5814 29.1663C13.5201 27.8169 13.5078 27.4116 13.5078 23.9934C13.5078 20.5753 13.5201 20.1721 13.5814 18.8227C13.6385 17.5747 13.847 16.8974 14.0222 16.4462C14.2542 15.8488 14.5321 15.4222 14.9801 14.9741C15.4281 14.5261 15.8548 14.2488 16.4521 14.0163C16.9033 13.8403 17.5809 13.6323 18.8289 13.5749C20.0097 13.5216 20.4674 13.5056 22.853 13.5029V13.5061ZM30.8329 15.6311C29.9849 15.6311 29.2969 16.3184 29.2969 17.1666C29.2969 18.0146 29.9849 18.7026 30.8329 18.7026C31.6809 18.7026 32.3689 18.0146 32.3689 17.1666C32.3689 16.3186 31.6809 15.6306 30.8329 15.6306V15.6311ZM24.0011 17.426C20.371 17.426 17.4277 20.3693 17.4277 23.9994C17.4277 27.6296 20.371 30.5715 24.0011 30.5715C27.6313 30.5715 30.5735 27.6296 30.5735 23.9994C30.5735 20.3693 27.631 17.426 24.0009 17.426H24.0011ZM24.0011 19.7324C26.3574 19.7324 28.2678 21.6426 28.2678 23.9991C28.2678 26.3554 26.3574 28.2658 24.0011 28.2658C21.6445 28.2658 19.7344 26.3554 19.7344 23.9991C19.7344 21.6426 21.6445 19.7324 24.0011 19.7324Z" fill="#E7D4E6"/>
</g>
</svg>
