<svg width="39" height="43" viewBox="0 0 39 43" fill="none" xmlns="http://www.w3.org/2000/svg">
<path d="M26.0517 3.09956C24.2707 1.10078 21.7832 0 19.0377 0C16.2773 0 13.7816 1.09408 12.009 3.08053C10.217 5.08883 9.3439 7.81827 9.54891 10.7657C9.95517 16.5805 14.2118 21.3107 19.0377 21.3107C23.8634 21.3107 28.1127 16.5814 28.5255 10.7676C28.7332 7.8469 27.8546 5.12308 26.0517 3.09956Z" fill="#0B0909"/>
<path d="M35.1441 42.6207H2.92915C2.50746 42.6265 2.08987 42.5344 1.7068 42.3513C1.32364 42.168 0.984665 41.8984 0.714377 41.5619C0.119499 40.8227 -0.120282 39.8133 0.0572656 38.7925C0.829691 34.3382 3.24032 30.5964 7.02932 27.9696C10.3954 25.6379 14.6593 24.3545 19.0366 24.3545C23.4139 24.3545 27.6779 25.6388 31.044 27.9696C34.8329 30.5955 37.2435 34.3372 38.0159 38.7916C38.1935 39.8123 37.9537 40.8218 37.3588 41.561C37.0887 41.8977 36.7497 42.1674 36.3666 42.3508C35.9834 42.5341 35.5658 42.6264 35.1441 42.6207Z" fill="#0B0909"/>
</svg>
