<svg width="45" height="41" viewBox="0 0 45 41" fill="none" xmlns="http://www.w3.org/2000/svg">
<path fill-rule="evenodd" clip-rule="evenodd" d="M2.41138 4.36991H6.89976L8.11831 8.56503C8.12819 8.59826 8.13891 8.63129 8.15046 8.66408L11.2628 22.7789C11.2712 22.8552 11.2841 22.931 11.3013 23.0061L12.6517 29.124V29.1327C12.837 29.9553 13.3303 30.6945 14.048 31.2254C14.7657 31.7563 15.6638 32.0462 16.5903 32.046H36.1707C36.8102 32.046 37.4236 31.8158 37.8758 31.4061C38.328 30.9963 38.5821 30.4405 38.5821 29.8611C38.5821 29.2816 38.328 28.7258 37.8758 28.3161C37.4236 27.9063 36.8102 27.6761 36.1707 27.6761H17.2494L16.4456 24.0345H38.9036H38.9357H38.939C39.0515 24.0345 39.373 24.0433 39.6688 23.9996C40.1991 23.9183 40.6988 23.719 41.1231 23.4195C41.5473 23.12 41.8828 22.7297 42.0995 22.2836C42.2731 21.9224 42.3599 21.465 42.3888 21.3135L42.3985 21.2727L44.9417 10.0217L44.9481 9.99253C45.0322 9.57346 45.0139 9.1428 44.8946 8.73081C44.7753 8.31883 44.5578 7.93553 44.2575 7.60787C43.9572 7.2802 43.5813 7.01612 43.1562 6.8342C42.7312 6.65228 42.2673 6.55694 41.7972 6.55487H41.7908H12.5167L11.446 2.84044C11.2452 2.0338 10.7475 1.31309 10.0346 0.796849C9.32167 0.280611 8.4361 -0.000413078 7.5235 4.55742e-07H2.41138C1.77184 4.55742e-07 1.1585 0.2302 0.706277 0.639959C0.254055 1.04972 0 1.60547 0 2.18496C0 2.76444 0.254055 3.32019 0.706277 3.72995C1.1585 4.13971 1.77184 4.36991 2.41138 4.36991ZM37.3925 37.2899C37.3925 36.4021 37.0033 35.5507 36.3104 34.923C35.6176 34.2952 34.678 33.9426 33.6982 33.9426C32.7185 33.9426 31.7788 34.2952 31.086 34.923C30.3932 35.5507 30.004 36.4021 30.004 37.2899C30.0323 38.1602 30.4338 38.9863 31.1232 39.5928C31.8126 40.1993 32.7357 40.5385 33.6966 40.5385C34.6575 40.5385 35.5806 40.1993 36.27 39.5928C36.9594 38.9863 37.3609 38.1602 37.3892 37.2899H37.3925ZM17.6191 33.9455C18.1132 33.9323 18.6052 34.009 19.066 34.1712C19.5267 34.3334 19.9469 34.5778 20.3015 34.8898C20.6562 35.2018 20.9381 35.5751 21.1306 35.9876C21.3232 36.4001 21.4224 36.8435 21.4224 37.2914C21.4224 37.7393 21.3232 38.1826 21.1306 38.5951C20.9381 39.0076 20.6562 39.381 20.3015 39.693C19.9469 40.005 19.5267 40.2493 19.066 40.4115C18.6052 40.5737 18.1132 40.6505 17.6191 40.6373C16.6587 40.6116 15.747 40.2478 15.0777 39.6231C14.4083 38.9985 14.0339 38.162 14.0339 37.2914C14.0339 36.4207 14.4083 35.5843 15.0777 34.9596C15.747 34.3349 16.6587 33.9712 17.6191 33.9455Z" fill="#0B0909"/>
</svg>
